<svg id="visual" viewBox="0 0 900 900" width="900" height="900" xmlns="http://www.w3.org/2000/svg" xmlns:xlink="http://www.w3.org/1999/xlink" version="1.1"><path d="M0 118L82 118L82 127L164 127L164 127L245 127L245 163L327 163L327 136L409 136L409 109L491 109L491 127L573 127L573 91L655 91L655 100L736 100L736 145L818 145L818 154L900 154L900 127L900 0L900 0L818 0L818 0L736 0L736 0L655 0L655 0L573 0L573 0L491 0L491 0L409 0L409 0L327 0L327 0L245 0L245 0L164 0L164 0L82 0L82 0L0 0Z" fill="#fa7268"></path><path d="M0 514L82 514L82 271L164 271L164 361L245 361L245 523L327 523L327 469L409 469L409 370L491 370L491 370L573 370L573 217L655 217L655 334L736 334L736 487L818 487L818 370L900 370L900 433L900 125L900 152L818 152L818 143L736 143L736 98L655 98L655 89L573 89L573 125L491 125L491 107L409 107L409 134L327 134L327 161L245 161L245 125L164 125L164 125L82 125L82 116L0 116Z" fill="#ea5e66"></path><path d="M0 568L82 568L82 388L164 388L164 415L245 415L245 658L327 658L327 613L409 613L409 433L491 433L491 469L573 469L573 289L655 289L655 442L736 442L736 586L818 586L818 424L900 424L900 550L900 431L900 368L818 368L818 485L736 485L736 332L655 332L655 215L573 215L573 368L491 368L491 368L409 368L409 467L327 467L327 521L245 521L245 359L164 359L164 269L82 269L82 512L0 512Z" fill="#d84a64"></path><path d="M0 757L82 757L82 550L164 550L164 514L245 514L245 766L327 766L327 757L409 757L409 658L491 658L491 694L573 694L573 505L655 505L655 541L736 541L736 703L818 703L818 505L900 505L900 748L900 548L900 422L818 422L818 584L736 584L736 440L655 440L655 287L573 287L573 467L491 467L491 431L409 431L409 611L327 611L327 656L245 656L245 413L164 413L164 386L82 386L82 566L0 566Z" fill="#c53762"></path><path d="M0 901L82 901L82 901L164 901L164 901L245 901L245 901L327 901L327 901L409 901L409 901L491 901L491 901L573 901L573 901L655 901L655 901L736 901L736 901L818 901L818 901L900 901L900 901L900 746L900 503L818 503L818 701L736 701L736 539L655 539L655 503L573 503L573 692L491 692L491 656L409 656L409 755L327 755L327 764L245 764L245 512L164 512L164 548L82 548L82 755L0 755Z" fill="#b0235f"></path></svg>